HIERARCHY
ROOT Pelvis
{
	OFFSET 0.000000 0.941512 0.000000
	CHANNELS 6 Xposition Yposition Zposition Zrotation Yrotation Xrotation 
	JOINT Pelvis_L_Hip
	{
		OFFSET 0.000000 0.000000 0.000000
		CHANNELS 3 Zrotation Yrotation Xrotation
		JOINT L_Hip
		{
			OFFSET 0.062321 -0.080322 -0.016990
			CHANNELS 3 Zrotation Yrotation Xrotation
			JOINT L_Knee
			{
				OFFSET 0.093051 -0.381305 -0.029784
				CHANNELS 3 Zrotation Yrotation Xrotation
				JOINT L_Ankle
				{
					OFFSET -0.010371 -0.431000 -0.033614
					CHANNELS 3 Zrotation Yrotation Xrotation
					End Site #name: L_Foot
					{
						OFFSET 0.069299 -0.038670 0.119418
					}
				}
			}
		}
	}
	JOINT Pelvis_R_Hip
	{
		OFFSET 0.000000 0.000000 0.000000
		CHANNELS 3 Zrotation Yrotation Xrotation
		JOINT R_Hip
		{
			OFFSET -0.055334 -0.094904 -0.002373
			CHANNELS 3 Zrotation Yrotation Xrotation
			JOINT R_Knee
			{
				OFFSET -0.064207 -0.384370 -0.019592
				CHANNELS 3 Zrotation Yrotation Xrotation
				JOINT R_Ankle
				{
					OFFSET 0.025418 -0.419734 -0.065953
					CHANNELS 3 Zrotation Yrotation Xrotation
					End Site #name: R_Foot
					{
						OFFSET -0.057233 -0.039888 0.132134
					}
				}
			}
		}
	}
	JOINT Pelvis_Spine1
	{
		OFFSET 0.000000 0.000000 0.000000
		CHANNELS 3 Zrotation Yrotation Xrotation
		JOINT Spine1
		{
			OFFSET -0.005562 0.124093 -0.043360
			CHANNELS 3 Zrotation Yrotation Xrotation
			JOINT Spine2
			{
				OFFSET 0.012244 0.139499 0.029894
				CHANNELS 3 Zrotation Yrotation Xrotation
				JOINT Spine3
				{
					OFFSET -0.002556 0.056561 0.009225
					CHANNELS 3 Zrotation Yrotation Xrotation
					JOINT Spine3_Neck
					{
						OFFSET 0.000000 0.000000 0.000000
						CHANNELS 3 Zrotation Yrotation Xrotation
						JOINT Neck
						{
							OFFSET -0.005205 0.217920 -0.024551
							CHANNELS 3 Zrotation Yrotation Xrotation
							End Site #name: Head
							{
								OFFSET 0.002365 0.091850 0.046637
							}
						}
					}
					JOINT Spine3_L_Collar
					{
						OFFSET 0.000000 0.000000 0.000000
						CHANNELS 3 Zrotation Yrotation Xrotation
						JOINT L_Collar
						{
							OFFSET 0.072225 0.116603 -0.009480
							CHANNELS 3 Zrotation Yrotation Xrotation
							JOINT L_Shoulder
							{
								OFFSET 0.115937 -0.058643 -0.021018
								CHANNELS 3 Zrotation Yrotation Xrotation
								JOINT L_Elbow
								{
									OFFSET 0.021994 -0.254722 -0.024492
									CHANNELS 3 Zrotation Yrotation Xrotation
									End Site #name: L_Wrist
									{
										OFFSET 0.048810 -0.240214 0.103329
									}
								}
							}
						}
					}
					JOINT Spine3_R_Collar
					{
						OFFSET 0.000000 0.000000 0.000000
						CHANNELS 3 Zrotation Yrotation Xrotation
						JOINT R_Collar
						{
							OFFSET -0.073372 0.120704 -0.024611
							CHANNELS 3 Zrotation Yrotation Xrotation
							JOINT R_Shoulder
							{
								OFFSET -0.108089 -0.054969 -0.020504
								CHANNELS 3 Zrotation Yrotation Xrotation
								JOINT R_Elbow
								{
									OFFSET -0.033684 -0.260739 0.009889
									CHANNELS 3 Zrotation Yrotation Xrotation
									End Site #name: R_Wrist
									{
										OFFSET -0.067980 -0.232763 0.118463
									}
								}
							}
						}
					}
				}
			}
		}
	}
}
MOTION
Frames: 17
Frame Time: 0.041667
0.001607 0.951395 -0.005161 -3.160330 -2.867766 3.922963 0.000000 0.000000 0.000000 -1.502193 -1.307387 -5.594543 4.907439 -0.423092 0.390577 -6.699860 -14.034808 3.731088 0.000000 0.000000 0.000000 3.576091 -0.014412 -1.013626 -3.332341 0.113600 -4.466878 1.186197 -0.936367 3.299074 0.000000 0.000000 0.000000 5.974865 -0.224516 -7.866160 -0.813454 0.006034 -2.459787 1.381762 3.364376 3.025228 0.000000 0.000000 0.000000 -3.697534 1.923000 2.050225 0.000000 0.000000 0.000000 26.959242 -3.621250 2.764490 -21.260857 3.616332 5.008088 -7.381588 -5.512455 -7.862770 0.000000 0.000000 0.000000 -37.861469 14.613436 -6.587829 -7.897253 0.936164 -20.505656 -62.095782 -28.077716 3.610496 
0.001703 0.951151 -0.005148 -3.171066 -2.856958 3.765448 0.000000 0.000000 0.000000 -1.493788 -1.276391 -5.468854 4.895684 -0.427246 0.471675 -6.679446 -14.164815 3.638438 0.000000 0.000000 0.000000 3.592425 -0.066426 -0.752515 -3.360243 0.105783 -4.591495 1.212628 -0.916416 3.343693 0.000000 0.000000 0.000000 5.921524 -0.210051 -7.900215 -0.738596 0.007572 -2.217527 1.473123 3.169497 3.045380 0.000000 0.000000 0.000000 -3.886981 2.027272 2.114108 0.000000 0.000000 0.000000 27.035010 -3.729071 2.653922 -21.006700 3.523337 4.817714 -7.715244 -5.685880 -7.853442 0.000000 0.000000 0.000000 -37.056592 14.212524 -6.136484 -6.511946 1.141489 -19.182908 -57.810785 -24.695403 8.670130 
0.001604 0.950996 -0.004912 -3.089963 -2.828956 3.563533 0.000000 0.000000 0.000000 -1.581839 -1.205622 -5.199732 4.900377 -0.422486 0.395154 -6.711187 -14.292279 3.625669 0.000000 0.000000 0.000000 3.518083 -0.113773 -0.488183 -3.370082 0.106068 -4.601961 1.200266 -0.922547 3.322139 0.000000 0.000000 0.000000 5.807702 -0.180455 -7.975523 -0.656839 0.016982 -1.788919 1.567610 2.992054 3.022483 0.000000 0.000000 0.000000 -4.164319 2.176422 2.068179 0.000000 0.000000 0.000000 27.135792 -3.959338 2.448763 -20.831033 3.463018 4.700492 -7.957652 -5.818835 -7.860020 0.000000 0.000000 0.000000 -36.272595 13.957072 -5.859962 -5.470774 1.256271 -17.971024 -55.561569 -23.587579 9.542071 
0.001523 0.950871 -0.004554 -3.032899 -2.815539 3.431236 0.000000 0.000000 0.000000 -1.656181 -1.159509 -5.026114 4.913525 -0.421909 0.374206 -6.702885 -14.351301 3.584468 0.000000 0.000000 0.000000 3.442095 -0.139314 -0.334058 -3.335344 0.105978 -4.558083 1.172053 -0.921385 3.259309 0.000000 0.000000 0.000000 5.708451 -0.150726 -8.075810 -0.470845 0.004938 -1.473672 1.669752 2.879930 3.026396 0.000000 0.000000 0.000000 -4.385891 2.295197 2.021937 0.000000 0.000000 0.000000 27.174686 -4.153374 2.271010 -20.809663 3.447049 4.654728 -8.009227 -5.857424 -7.896646 0.000000 0.000000 0.000000 -35.773574 13.785288 -5.678313 -5.100287 1.263631 -17.207518 -55.823424 -24.285617 7.417981 
0.001567 0.950817 -0.004229 -3.021757 -2.873078 3.382753 0.000000 0.000000 0.000000 -1.680873 -1.142958 -4.963527 4.906887 -0.424422 0.415484 -6.645446 -14.297445 3.524867 0.000000 0.000000 0.000000 3.398229 -0.141340 -0.310434 -3.294639 0.108260 -4.478335 1.159190 -0.884497 3.201187 0.000000 0.000000 0.000000 5.757603 -0.153105 -8.110088 -0.363254 -0.008279 -1.415456 1.760364 2.864989 3.040484 0.000000 0.000000 0.000000 -4.433637 2.321257 2.007069 0.000000 0.000000 0.000000 27.143893 -4.241346 2.177441 -20.829446 3.458326 4.685223 -7.961276 -5.853230 -7.971029 0.000000 0.000000 0.000000 -35.904496 13.904829 -5.780619 -5.822901 1.106055 -16.929527 -56.745388 -25.855412 3.337578 
0.001565 0.950854 -0.004017 -3.012861 -2.956685 3.437262 0.000000 0.000000 0.000000 -1.692605 -1.155835 -5.016255 4.885171 -0.425850 0.458086 -6.594256 -14.170842 3.509390 0.000000 0.000000 0.000000 3.369000 -0.122914 -0.398202 -3.274073 0.110279 -4.425125 1.163779 -0.846900 3.180311 0.000000 0.000000 0.000000 5.962878 -0.186133 -8.098160 -0.473451 0.001281 -1.559243 1.767247 2.976045 3.064474 0.000000 0.000000 0.000000 -4.348527 2.274731 1.969064 0.000000 0.000000 0.000000 27.125120 -4.263504 2.161585 -20.811302 3.440984 4.629362 -7.855230 -5.818518 -8.031878 0.000000 0.000000 0.000000 -36.604561 14.287941 -6.163089 -7.237376 0.827546 -16.671092 -57.498873 -28.133684 -2.935479 
0.001402 0.950898 -0.003781 -3.005057 -2.954715 3.585037 0.000000 0.000000 0.000000 -1.704556 -1.196505 -5.176508 4.895670 -0.427545 0.469779 -6.567085 -14.055329 3.522490 0.000000 0.000000 0.000000 3.351930 -0.083614 -0.596807 -3.235124 0.112787 -4.345204 1.133587 -0.889241 3.144322 0.000000 0.000000 0.000000 6.202847 -0.234744 -8.016199 -0.682611 0.015977 -1.886501 1.713076 3.172572 3.134678 0.000000 0.000000 0.000000 -4.264174 2.225445 1.819924 0.000000 0.000000 0.000000 27.080455 -4.203515 2.239607 -20.835060 3.391536 4.430995 -7.491077 -5.656952 -8.142347 0.000000 0.000000 0.000000 -37.563384 14.669840 -6.587424 -9.090471 0.475177 -16.380520 -57.846549 -31.215877 -11.701180 
0.001120 0.950997 -0.003424 -3.013115 -2.856397 3.786526 0.000000 0.000000 0.000000 -1.636725 -1.247462 -5.373376 4.865898 -0.420982 0.412279 -6.573773 -13.975532 3.566943 0.000000 0.000000 0.000000 3.349830 -0.034254 -0.850990 -3.166882 0.112783 -4.256420 1.080224 -1.002991 3.113173 0.000000 0.000000 0.000000 6.446228 -0.296725 -7.848039 -0.942333 0.027889 -2.384574 1.645768 3.375398 3.239472 0.000000 0.000000 0.000000 -4.173951 2.173853 1.710447 0.000000 0.000000 0.000000 27.008760 -4.082509 2.379886 -20.895313 3.360528 4.273003 -7.062575 -5.478001 -8.321765 0.000000 0.000000 0.000000 -38.823813 14.951382 -6.932588 -11.303796 0.065401 -15.993939 -55.797747 -34.246678 -24.112098 
0.000701 0.951093 -0.003134 -3.040720 -2.722290 4.040661 0.000000 0.000000 0.000000 -1.548880 -1.314583 -5.630994 4.852020 -0.414765 0.343306 -6.609079 -13.895568 3.654573 0.000000 0.000000 0.000000 3.372321 0.021866 -1.145934 -3.080429 0.107167 -4.208975 1.033046 -1.131979 3.108302 0.000000 0.000000 0.000000 6.699815 -0.355021 -7.724926 -1.283110 0.047150 -2.911099 1.607323 3.536303 3.357453 0.000000 0.000000 0.000000 -4.022843 2.092380 1.711888 0.000000 0.000000 0.000000 26.903454 -4.025560 2.454287 -20.922074 3.363933 4.257045 -6.800483 -5.390618 -8.501865 0.000000 0.000000 0.000000 -40.516879 15.285094 -7.344863 -13.840744 -0.387642 -15.313338 -49.898005 -35.350092 -40.259857 
0.000063 0.951130 -0.002714 -3.085185 -2.600388 4.298915 0.000000 0.000000 0.000000 -1.426393 -1.383507 -5.894010 4.842111 -0.412194 0.323210 -6.625855 -13.810089 3.716973 0.000000 0.000000 0.000000 3.438352 0.069748 -1.409155 -3.013918 0.099774 -4.207653 1.002576 -1.233270 3.119824 0.000000 0.000000 0.000000 6.894676 -0.404147 -7.609077 -1.673686 0.064929 -3.525342 1.620213 3.666862 3.541532 0.000000 0.000000 0.000000 -3.765294 1.955668 1.754364 0.000000 0.000000 0.000000 26.842976 -3.987990 2.513301 -20.948197 3.384539 4.293691 -6.798376 -5.404845 -8.549349 0.000000 0.000000 0.000000 -42.488304 15.702180 -7.873094 -16.433888 -0.820782 -14.730262 -41.452616 -32.629428 -57.858427 
-0.000677 0.951058 -0.002246 -3.131276 -2.520321 4.499127 0.000000 0.000000 0.000000 -1.295095 -1.438538 -6.101637 4.825244 -0.414525 0.382748 -6.607306 -13.740884 3.719062 0.000000 0.000000 0.000000 3.512551 0.099512 -1.580771 -2.959848 0.091657 -4.229692 0.993835 -1.264674 3.126590 0.000000 0.000000 0.000000 6.964539 -0.425668 -7.548537 -2.075272 0.088267 -4.005375 1.731126 3.800153 3.771621 0.000000 0.000000 0.000000 -3.489580 1.808951 1.726285 0.000000 0.000000 0.000000 26.909311 -4.026211 2.526063 -21.131542 3.412053 4.265358 -6.927282 -5.441386 -8.444387 0.000000 0.000000 0.000000 -44.548216 16.345292 -8.715849 -18.634841 -1.168879 -14.201486 -33.372302 -25.701583 -73.804748 
-0.001430 0.950849 -0.001855 -3.195033 -2.450053 4.590150 0.000000 0.000000 0.000000 -1.138221 -1.460639 -6.175366 4.802125 -0.414917 0.421871 -6.596027 -13.713706 3.712762 0.000000 0.000000 0.000000 3.611064 0.106345 -1.639650 -2.907065 0.084730 -4.240252 0.991946 -1.257180 3.119501 0.000000 0.000000 0.000000 6.896015 -0.413084 -7.565287 -2.472539 0.128491 -4.162642 1.983563 3.938100 3.960251 0.000000 0.000000 0.000000 -3.242660 1.676715 1.555100 0.000000 0.000000 0.000000 26.982467 -4.114329 2.496366 -21.549120 3.420830 4.053506 -6.890190 -5.350810 -8.197404 0.000000 0.000000 0.000000 -46.338518 17.237247 -9.937106 -20.191882 -1.399342 -13.758154 -27.488457 -15.785657 -85.848771 
-0.001995 0.950571 -0.001532 -3.274865 -2.323951 4.652234 0.000000 0.000000 0.000000 -0.967337 -1.479190 -6.234320 4.771288 -0.416176 0.485737 -6.580167 -13.738671 3.673662 0.000000 0.000000 0.000000 3.729534 0.102856 -1.649114 -2.861879 0.079138 -4.248040 0.976288 -1.280216 3.106401 0.000000 0.000000 0.000000 6.617308 -0.360853 -7.625218 -2.667162 0.155563 -4.120203 2.328769 4.126369 4.106823 0.000000 0.000000 0.000000 -3.130848 1.615821 1.261478 0.000000 0.000000 0.000000 27.008804 -4.143191 2.525262 -21.917030 3.394436 3.751916 -7.019154 -5.389414 -8.095299 0.000000 0.000000 0.000000 -47.380422 18.118954 -11.220683 -21.023118 -1.507233 -13.315295 -24.175737 -6.388920 -93.071082 
-0.002184 0.950346 -0.001262 -3.334140 -2.092253 4.726037 0.000000 0.000000 0.000000 -0.853472 -1.501757 -6.317203 4.768520 -0.416544 0.509270 -6.619724 -13.865463 3.666573 0.000000 0.000000 0.000000 3.827268 0.101032 -1.660922 -2.834722 0.074878 -4.267729 0.922903 -1.406523 3.089528 0.000000 0.000000 0.000000 6.296556 -0.308801 -7.637176 -2.682736 0.160142 -4.075991 2.597820 4.326233 4.170064 0.000000 0.000000 0.000000 -3.204594 1.652432 0.985882 0.000000 0.000000 0.000000 27.028040 -4.060822 2.667245 -22.140062 3.369339 3.542714 -7.328108 -5.599212 -8.248923 0.000000 0.000000 0.000000 -47.639092 18.487402 -11.847897 -20.802744 -1.473304 -13.249869 -22.774716 -0.876039 -96.113555 
-0.002056 0.950291 -0.000907 -3.310428 -1.816487 4.778085 0.000000 0.000000 0.000000 -0.852168 -1.511538 -6.360070 4.764084 -0.409141 0.421371 -6.739530 -14.058619 3.747645 0.000000 0.000000 0.000000 3.832135 0.095161 -1.630281 -2.836308 0.070262 -4.334766 0.854500 -1.614913 3.101908 0.000000 0.000000 0.000000 6.120370 -0.280321 -7.637948 -2.661068 0.158024 -4.061040 2.641716 4.414465 4.142398 0.000000 0.000000 0.000000 -3.393396 1.749574 0.971877 0.000000 0.000000 0.000000 27.000996 -3.942378 2.819389 -22.087775 3.386601 3.627951 -7.714638 -5.881835 -8.491576 0.000000 0.000000 0.000000 -47.310266 18.367190 -11.768634 -19.870222 -1.349810 -13.595421 -22.434298 0.444932 -96.239998 
-0.001620 0.950267 -0.000313 -3.240036 -1.627112 4.780538 0.000000 0.000000 0.000000 -0.930285 -1.502366 -6.332709 4.750101 -0.402129 0.342625 -6.833983 -14.217463 3.809649 0.000000 0.000000 0.000000 3.758762 0.086376 -1.567130 -2.851242 0.071257 -4.350221 0.793045 -1.782041 3.095825 0.000000 0.000000 0.000000 6.044580 -0.263551 -7.665098 -2.612331 0.153727 -4.028560 2.575097 4.424388 4.089916 0.000000 0.000000 0.000000 -3.556782 1.834486 1.133717 0.000000 0.000000 0.000000 26.981953 -3.857493 2.919032 -21.945739 3.421854 3.828276 -8.040431 -6.052502 -8.475025 0.000000 0.000000 0.000000 -46.811463 18.091420 -11.430308 -18.712465 -1.173999 -13.717160 -22.520037 -0.235122 -95.191462 
-0.000929 0.950262 0.000414 -3.173951 -1.572694 4.702498 0.000000 0.000000 0.000000 -1.067280 -1.464868 -6.195737 4.778869 -0.403457 0.330665 -6.856406 -14.288460 3.807842 0.000000 0.000000 0.000000 3.661603 0.073674 -1.478023 -2.856875 0.079196 -4.267480 0.736100 -1.827647 3.001823 0.000000 0.000000 0.000000 6.012485 -0.266821 -7.600429 -2.564585 0.152246 -3.957553 2.517228 4.433789 3.988076 0.000000 0.000000 0.000000 -3.672043 1.894574 1.278063 0.000000 0.000000 0.000000 26.986416 -3.858857 2.930123 -21.914172 3.462879 3.995974 -8.080698 -6.005457 -8.249984 0.000000 0.000000 0.000000 -46.331480 17.897821 -11.167503 -17.108545 -0.903801 -12.916092 -22.693518 -1.081724 -94.382948 
